<svg width="501" height="360" viewBox="0 0 501 360" fill="none" xmlns="http://www.w3.org/2000/svg">
<g clip-path="url(#clip0_801_108)">
<path d="M71.1701 253.86C66.4701 245.22 65.8901 236.51 74.3201 231.92C78.4501 229.67 81.0901 228.67 84.0501 227.44L86.0501 231.11C82.7801 231.16 77.8601 230.86 74.8101 232.52C69.9701 235.15 70.4301 242.36 75.4301 251.54C81.2001 262.14 89.0601 265.86 93.9001 263.22C96.4001 261.86 98.2401 257.29 99.9501 255.17L102.07 258.77C100.16 260.13 97.2801 262.19 93.9801 263.98C86.2601 268.18 76.6801 263.98 71.1601 253.85L71.1701 253.86Z" fill="black"/>
<path d="M98.69 245.95C95.76 238.07 99.7 231.64 106.07 229.27C112.3 226.95 115.54 228.84 116.75 232.09C119.28 238.9 107.52 245.3 109.38 250.29L108.67 250.55C106.82 245.56 115.24 241.92 112.5 234.53C111.71 232.39 108.97 229 105.37 230.34C101.27 231.86 100.59 236.98 103.29 244.24C106.75 253.55 111.93 255.07 115.98 253.56C118.56 252.6 120.7 250.44 121.7 248.24L122.48 248.96C121.12 251.29 118.5 253.38 115.43 254.52C109.64 256.67 102.23 255.42 98.71 245.94L98.69 245.95Z" fill="black"/>
<path d="M125.89 256.26C125.31 252.55 132.48 250.75 131.77 246.25C131.68 245.69 131.49 245.09 131.1 244.43L124.71 233.13C122.71 229.55 119.96 225.85 119.17 225.11V225.02L125.87 223.96V224.05C125.36 225 127.54 228.79 129.56 232.42L133.33 239.28C134.01 240.52 134.37 241.62 134.53 242.65C135.6 249.46 126.67 252.01 127.12 254.87C127.19 255.34 127.8 255.53 128.69 255.39C131.04 255.02 135.48 252.11 137.16 244.73L138.72 237.85C140.03 232.11 138.94 226.13 138.3 222L142.99 221.26L137.96 244.6C135.49 256.1 132.26 258.53 129.59 258.95C127.85 259.22 126.23 258.37 125.9 256.26H125.89Z" fill="black"/>
<path d="M148.43 247.43C149.14 246.62 149.64 242.22 149.88 238.09L150.87 221.02C151.11 216.89 151.13 212.47 150.51 211.58V211.48L156.25 211.81L154.71 238.37C154.47 242.49 154.45 246.92 155.07 247.81V247.9L148.43 247.51V247.41V247.43Z" fill="black"/>
<path d="M160.91 235.08C163.4 226.75 168.92 223.39 175.75 225.44C182.58 227.48 185.25 233.29 182.76 241.62C180.27 249.95 174.83 253.38 168 251.34C161.17 249.3 158.42 243.42 160.91 235.09V235.08ZM178.11 240.23C180.23 233.13 179.76 227.43 175.48 226.15C171.16 224.86 167.69 229.32 165.55 236.47C163.43 243.57 163.84 249.3 168.17 250.59C172.45 251.87 175.99 247.33 178.11 240.23Z" fill="black"/>
<path d="M180.22 254.8C181.23 254.41 183.7 250.74 185.82 247.19L189.31 241.36C191.43 237.81 193.5 233.9 193.37 232.83L193.42 232.75L198.35 235.7L194.47 242.18L194.55 242.23C198.57 238.38 203.59 238.23 206.89 240.2C210.23 242.2 211.85 246.43 208.95 251.29L204.66 258.46C202.54 262.01 200.47 265.92 200.61 266.99L200.56 267.07L194.85 263.65L194.9 263.57C195.91 263.18 198.38 259.51 200.46 255.94L204.75 248.77C207.48 244.2 206.16 242.25 204.12 241.03C201.18 239.27 195.9 239.87 191.96 246.37L189.98 249.67C187.86 253.22 185.79 257.13 185.92 258.2L185.87 258.28L180.16 254.87L180.21 254.79L180.22 254.8Z" fill="black"/>
<path d="M225.72 281.06L226.55 276.96C229.27 279.06 233.24 282.44 238.17 283.44C242.13 284.24 244.57 282.22 245.31 278.59C247.12 269.7 229.22 261.21 230.95 252.7C232.04 247.35 237.34 245.81 242.93 246.95C246.93 247.76 251.08 249.05 253.34 249.84L252.55 253.7C250.13 251.75 245.57 248.21 241.8 247.44C238.96 246.86 235.73 247.95 235.12 250.98C233.43 259.31 251.23 266.86 249.32 276.7C248.15 282.91 242.54 285.26 236.77 284.08C232.12 283.13 228.93 282.1 225.7 281.05L225.72 281.06Z" fill="black"/>
<path d="M260.95 277.13L258.51 269.68C257.22 265.75 255.62 261.63 254.72 261.03L254.69 260.94L260.15 259.15L265.79 276.34C267.45 281.39 270.26 282.82 272.75 282.01C276.27 280.86 279.11 275.33 277.12 269.28L275.43 264.14C274.14 260.21 272.54 256.09 271.64 255.49L271.61 255.4L277.07 253.61L282.14 269.09C283.43 273.02 285.03 277.14 285.93 277.74L285.96 277.83L280.5 279.62L278.4 273.21L278.31 273.24C278.45 277.94 275.71 281.94 271.97 283.16C267.82 284.52 262.81 282.81 260.95 277.13Z" fill="black"/>
<path d="M290.48 255.55C288.03 249.92 288.1 244.36 292.89 241.1L295.03 244.24C289.61 247.93 288.54 251.93 292.65 258.73L294.01 260.73C296.33 264.15 299.01 267.67 300.04 268L300.09 268.08L294.59 271.82L294.54 271.74C294.61 270.66 292.32 266.87 290 263.46L286.18 257.84C283.86 254.42 281.18 250.9 280.15 250.57L280.1 250.49L284.85 247.26L290.48 255.55Z" fill="black"/>
<path d="M309.23 261.65C309.33 260.57 307.17 256.71 304.96 253.22L296.63 240.05L295.14 240.99L294.76 240.39L296.24 239.45L294.39 236.52C290.73 230.74 294.55 227.54 299.88 224.95L302.12 228.48C298.66 227.8 296.62 227.97 295.58 228.63C294.3 229.44 294.47 230.96 295.49 232.57C296.53 234.22 298.36 235.87 300.3 236.89L304.88 233.99L305.26 234.59L300.73 237.46L309.06 250.62C311.27 254.11 313.83 257.72 314.85 258.08L314.9 258.16L309.28 261.72L309.23 261.64V261.65Z" fill="black"/>
<path d="M333.95 248.08V247.99C334.51 247.07 334.29 242.65 333.85 238.54L332.06 221.53C331.63 217.42 330.93 213.05 330.18 212.27V212.18L341.98 210.94C351.05 209.99 355.76 216.13 356.86 226.66C357.95 237.01 354.54 245.91 345.23 246.89L333.94 248.08H333.95ZM339.59 246.77L344.27 246.28C351.31 245.54 353.22 238.27 352.05 227.17C351.04 217.63 347.87 211.08 340.65 211.84L335.97 212.33L339.6 246.77H339.59Z" fill="black"/>
<path d="M360.02 246.61C360.79 245.85 361.62 241.51 362.17 237.41L363.08 230.68C363.63 226.58 363.98 222.18 363.44 221.24V221.15L369.15 221.92L366.98 238.07C366.43 242.17 366.08 246.57 366.62 247.51V247.6L360.02 246.71V246.62V246.61ZM365.08 212.21C365.23 211.13 366.33 210.08 368.26 210.34C370.14 210.59 370.93 211.9 370.78 212.98C370.62 214.16 369.53 215.16 367.65 214.91C365.72 214.65 364.93 213.39 365.09 212.22L365.08 212.21Z" fill="black"/>
<path d="M370.74 241.69C373 235.74 383.2 230.82 384.24 228.06C385.62 228.58 386.42 229.8 385.68 231.76C384.7 234.34 375.12 239.39 372.82 245.43C372.04 247.47 373.47 249.34 375.69 250.18C379.24 251.53 384.79 250.69 386.43 246.38L389.36 238.65C391.28 233.59 392.02 228.84 388.51 227.51C387 226.94 384.68 227.02 381.32 227.98L381.36 225.46C384.24 225.64 386.55 226.11 388.37 226.8C395.39 229.46 395.73 235.53 393.35 241.8L391.75 246.02C390.28 249.88 388.94 254.1 389.26 255.13L389.23 255.22L383.95 253.22L385.42 249.36L385.29 249.31C382.31 251.68 378.4 251.93 375.34 250.77C371.65 249.37 369.19 245.95 370.75 241.71L370.74 241.69Z" fill="black"/>
<path d="M404.19 246.3C408.35 241.78 413.46 239.59 418.38 242.66L416.37 245.89C410.81 242.43 406.71 243.07 402.16 249.57L400.88 251.63C398.7 255.14 396.56 259.01 396.68 260.09L396.63 260.17L390.99 256.66L391.04 256.58C392.06 256.21 394.59 252.58 396.78 249.07L400.37 243.3C402.55 239.79 404.69 235.92 404.57 234.84L404.62 234.76L409.5 237.8L404.2 246.31L404.19 246.3Z" fill="black"/>
<path d="M402.3 270.97C404.68 268.07 410.79 272.24 413.69 268.72C414.05 268.28 414.37 267.74 414.6 267.01L418.81 254.73C420.15 250.85 421.1 246.34 421.13 245.26L421.19 245.19L426.43 249.51L426.37 249.58C425.31 249.82 423.93 253.97 422.55 257.88L419.92 265.25C419.44 266.58 418.86 267.58 418.2 268.39C413.82 273.71 405.98 268.73 404.14 270.97C403.84 271.34 404.1 271.92 404.79 272.49C406.62 274 411.75 275.39 418.38 271.75L424.56 268.35C429.72 265.52 433.47 260.74 436.13 257.51L439.8 260.53L419 272.26C408.76 278.04 404.8 277.25 402.72 275.53C401.36 274.41 400.92 272.63 402.28 270.98L402.3 270.97Z" fill="black"/>
<path d="M278.46 84.2C281.49 86.5 284.84 90.23 286.36 93.74C287.05 95.32 287.31 97.16 288 98.63C289.18 101.12 292.12 104.23 293.6 106.84C295.71 110.57 294.54 113.72 292.98 117.35C292.21 119.14 290.96 120.1 291.26 122.43C292 128.39 297.11 130.46 299.49 135.28C300.75 137.84 301.36 141.08 300.67 143.88C300.62 144.07 300.62 144.44 300.35 144.4C300.04 141.66 300.04 139.33 298.95 136.75C298.1 134.75 296.72 132.98 295.13 131.52C295.54 133.52 296.78 135.75 297 137.77C297.25 140.05 296.93 141.93 296.36 144.04C296.09 145.05 295.55 146.16 295.5 147.3C295.32 151.92 302.45 154.19 305.14 156.78C305.92 157.53 307.45 159.5 307.62 160.55C307.87 162.11 306.74 165.25 305.02 165.67C305.63 164.06 306.64 163.16 306.51 161.29C306.33 158.59 302.78 156.11 300.54 155.03C300.32 155.24 301.54 156.13 301.66 156.29C302.95 158.03 304.07 162.85 303.67 164.97C303.53 165.69 302.61 167.29 302.58 167.81C302.54 168.51 303.43 169.93 303.53 170.98C303.8 173.79 302.85 177.08 300.73 179C298.94 180.62 297.81 180.05 295.79 180.21C294.09 180.35 292.71 182.5 290.94 183.2C288.29 184.24 286.06 184.24 283.75 182.45C283.73 182.86 283.83 183.26 283.95 183.65C286.1 190.54 290 196.37 292.29 203.11C292.54 203.83 294.03 207.61 292.8 207.78C292.69 207.75 292.57 207.71 292.47 207.64C291.66 207.09 289.05 199.74 288.37 198.26C287.28 195.87 285.72 193.51 284.68 191.13C282.96 187.16 282 182.83 280.4 178.81C279.1 175.53 277.29 172.45 276.1 169.11C272.75 159.74 267.52 138.33 257.63 134.21C256.98 133.94 252.33 132.53 251.97 132.64C251.23 133.75 250.74 134.71 249.7 135.61C249.24 136.01 248.69 135.86 248.66 136.63C248.58 138.21 251.71 141.64 252.35 143.6C253.08 145.82 252.82 149.05 250.36 149.98C250.82 148.76 251.72 147.55 251.65 146.18C251.55 144.17 250.31 142.19 249.19 140.61C249.04 140.4 249.05 140.2 248.68 140.28C249.06 142.56 247.48 143.98 246.81 145.78C244.89 150.89 247.5 153.22 250.25 156.91C252.27 159.61 253.87 163.16 251.38 166.22C251.05 166.63 250.43 166.71 250.35 167.26C250.26 167.9 251.52 170.96 251.64 172.12C252 175.53 250.47 178.88 248.21 181.34C245.95 183.8 243.92 184.32 240.58 183.93C240.09 183.87 238.95 183.68 238.97 183.02C240.44 183.19 242.2 183.37 243.68 183.16C247.96 182.54 251.17 176.02 250.35 172.01C250.1 171.96 250.06 172.34 250.03 172.52C249.65 174.35 249.35 176.19 248 177.59C245.16 180.55 240.4 182.48 236.28 182.06C233.7 181.8 230.68 179.68 228.64 179.73C223.98 179.84 216.71 183.18 212.21 181.5L209.11 179.66C208.58 181.61 208.51 183.7 208.54 185.73C208.67 193.47 210.13 202.85 212.1 210.34C213.03 213.88 214.51 217.39 215.02 221.04C215.12 221.76 215.31 222.49 215.07 223.2C213.85 223.59 213.94 221.22 213.67 220.34C212.57 216.73 211.03 213.24 210.06 209.59C207.99 201.83 206.58 190.54 207.24 182.55C207.31 181.74 208.08 179.15 207.95 178.67C207.53 177.05 203.69 178.19 202.47 178.17C201.31 178.16 198.84 177.71 197.76 177.27C195.72 176.43 195.07 173.77 194.07 172C193.26 174.99 193.89 177.67 196.31 179.65C196.47 179.78 198.25 180.64 197.9 180.96C195.71 180.96 192.82 178.3 192.5 176.19C192.32 174.99 192.54 172.09 192.68 170.79C192.9 168.74 193.35 165.52 194.13 163.66C194.45 162.9 195.45 161.6 195.45 160.9C195.45 160 194.21 158.14 194.03 156.93C193.7 154.62 195.12 151.46 196.69 149.79C197.4 149.03 198.09 148.85 198.74 148.3C199.74 147.45 200.6 146.4 201.69 145.64C202.34 144.59 201.69 143.2 201.63 142.05C201.32 136.41 202.58 132.89 206.66 128.98C206.92 128.73 207.51 128.72 207.13 128.34C206.9 128.31 206.69 128.36 206.47 128.43C205.03 128.86 201.76 131.08 200.88 132.36C198.46 135.86 200.03 139.13 200.5 142.9C200.14 142.98 200.05 142.72 199.87 142.5C197.36 139.35 197.93 133.63 200.8 130.79C203.17 128.45 205.89 127.83 208.76 126.62C210.54 125.87 212.65 123.45 213.29 121.63C214.18 119.11 213.52 116.34 213.75 113.7C213.86 112.51 214.62 111.44 214.67 110.5C214.73 109.27 214.1 108.62 214.54 107.03C215.36 104.08 218.27 102.85 220.45 101.18C221.6 100.3 222.83 99.38 223.92 98.48C229.21 94.12 232.29 87.58 237.47 83.48C242.61 79.41 247.98 76.57 254.71 77.4C256.23 77.59 257.85 78.32 259.21 78.5C261.21 78.77 263.67 78.33 265.72 78.52C270.47 78.96 274.72 81.36 278.44 84.18L278.46 84.2ZM252.39 82.64C251.72 82.16 247.45 84.76 246.81 85.36C246.17 85.96 246.46 86.08 247.11 86.53C248.45 87.46 250.44 87.51 252.02 87.87C252.05 87.18 251.49 86.66 251.36 86.02C251.09 84.69 251.69 83.72 252.4 82.65L252.39 82.64ZM257.73 86.68C258.2 85.81 257.67 83.87 256.96 83.2C256.42 82.69 255.6 82.59 254.9 82.63C252.4 82.8 252.14 86.66 254.25 87.4C255.31 87.77 257.14 87.77 257.73 86.68ZM258.55 87.68C260.56 87.41 262.41 86.7 263.77 85.16C263.77 84.69 259.19 82.96 258.92 83.2C259.63 84.79 259.12 86.16 258.55 87.68ZM277.58 86.56C275.86 86.34 273.84 86.31 272.16 86.84C271.9 86.92 271.73 86.85 271.79 87.21C271.88 87.81 275.19 90.04 275.8 89.91C276.12 89.43 275.99 88.89 276.24 88.29C276.34 88.05 276.84 87.22 277.01 87.01C277.2 86.78 277.6 86.85 277.58 86.55V86.56ZM280.76 88.61C280.05 85.66 276.77 88.1 277.96 90.02C278.92 91.56 281.41 91.78 283.01 91.32C283.35 91.07 283.04 91.05 282.91 90.85C282.75 90.6 282.19 89.79 281.95 89.75C280.13 91.46 277.72 89.28 280.76 88.61ZM238.4 90.67C235.78 90.71 233.5 91.92 231.52 93.5C231.94 95.95 235.1 96.97 237.28 97.2C236.35 95.92 236.13 94.54 236.77 93.05C236.93 92.68 238.54 90.79 238.4 90.67ZM242.32 97.75C242.77 97.75 243.22 97.79 243.68 97.71C245.21 97.42 248.37 96.46 249.66 95.66C250.11 95.38 250.56 95.09 250.91 94.67C250.31 93.65 244.17 90.93 243.64 91.41C244.18 92.7 244.34 93.97 244.15 95.37C243.96 96.77 243.28 96.86 242.33 97.75H242.32ZM242.65 95.48C242.8 94.32 242.7 92.88 241.52 92.31C238.72 90.95 236.16 94.64 239.29 96.04C240.5 96.58 241.6 96.07 242.66 95.49L242.65 95.48ZM266.57 91.97C263.98 92.32 260.94 92.67 258.96 94.49C258.96 94.68 261.24 96.91 261.55 97.09C262.54 97.67 264.21 97.9 265.27 98.5C265.24 97.57 264.52 96.62 264.61 95.69C264.63 95.43 265.14 93.81 265.27 93.59C265.4 93.36 266.93 92.34 266.58 91.96L266.57 91.97ZM266.63 96.96C267.51 98.05 269.75 98.37 270.97 97.77C272.56 96.98 271.88 94.64 270.69 93.74C268.07 91.76 264.87 94.76 266.63 96.96ZM279.04 96.67C278.94 96.5 276.14 94.9 275.72 94.67C275.3 94.44 272.94 93.26 272.73 93.46C272.71 93.91 273.15 94.08 273.25 94.52C273.39 95.15 273.31 96.61 273.08 97.22C272.97 97.5 272.22 98.38 271.98 98.68C274.55 98.82 276.74 98.12 279.07 97.19C279.05 97.02 279.12 96.82 279.03 96.67H279.04ZM231.79 104.17C230.26 102.78 227.58 101.46 225.52 101.3C226.93 102.79 227.55 104.11 226.96 106.19C226.75 106.91 226.35 107.36 226.08 108.02C228.65 108.1 230.88 107.42 232.96 105.94C233.21 105.51 232.11 104.45 231.79 104.17ZM253.13 102.62H252.6C251.54 105.24 249.74 107.36 249.27 110.22C249.09 111.33 248.75 113.05 248.66 114.08C248.53 115.6 248.66 118.68 248.9 120.2C249.19 122.05 251.03 124.36 251.75 126.13C252.47 127.9 252.49 129.44 252.4 131.35C252.73 131.35 253.06 131.31 253.38 131.39C257.43 132.47 260.25 133.15 263.29 136.22C263.75 136.68 264.96 138.49 265.46 138.72C266.82 139.34 268.78 137.44 269.45 136.38C271.57 133.01 273.41 129.01 275.38 125.51C276.37 123.75 277.7 122.43 278.32 120.43C278.57 119.63 279.43 115.66 278.89 115.21L276.52 114.4C276.02 114.37 275.96 115.36 275.54 115.78C275.34 115.98 274.34 116.54 274.09 116.57C272.5 116.79 272.34 115.01 271.89 114.98L270.76 115.48C270.61 115.71 270.63 117.78 270.69 118.18C270.9 119.54 272.17 121.1 271.94 122.62C271.67 124.46 270.08 124.29 269.56 125.86C268.47 126.21 268.38 125.01 268.72 124.26C269.06 123.51 270.76 123.08 270.68 121.93C270.22 120.24 269.5 118.6 269.21 116.86C268.04 109.96 272.48 107.77 278.42 106.71C278.66 106.67 278.99 106.66 278.7 106.34L271.37 105.74C270.64 105.53 270.89 104.5 270.86 103.91C270.17 104.34 269.52 105.43 268.67 105.56C268.16 105.64 266.74 105.44 266.11 105.44C265.27 105.44 264.3 105.85 263.42 105.38L263.59 104.09C261.95 103.51 254.12 104.09 253.32 103.25C253.12 103.04 253.16 102.63 253.13 102.61V102.62ZM220.72 107.04C221.78 108.15 225.12 107.3 225.61 105.96C226.17 104.41 223.88 102.13 222.44 102.97C221.57 103.48 219.87 106.14 220.73 107.04H220.72ZM219.36 103.36C219.21 103.23 218.34 103.96 218.15 104.11C216.79 105.18 215.73 106.39 215.62 108.21C216.44 107.51 216.83 106.37 217.48 105.5C217.63 105.3 219.5 103.5 219.35 103.36H219.36ZM287.29 104.29C285.72 104.6 284.03 105.36 283.01 106.65C283.06 107.25 285.88 109.14 286.08 109.14C286.51 109.14 286.17 108.33 286.19 108.14C286.35 106.75 286.8 105.58 287.29 104.29ZM245.67 104.85C244.13 105.21 241.53 105.76 240.2 106.57C239.25 107.15 241.4 108.66 241.95 109.03C242.27 109.25 243.52 110.14 243.8 109.88C243.49 107.89 244.19 106.13 245.67 104.84V104.85ZM291.58 111L291.02 109.04C290.69 108.77 290.48 109.42 290.03 109.31C289.85 109.26 289.25 108.65 289.19 108.45C288.88 107.41 289.88 107.53 289.9 107.01C289.91 106.67 289.02 104.53 288.6 104.85C287.01 107.82 287.98 110.89 291.58 111.01V111ZM293.44 110.44C293.46 108.35 292.13 106.52 290.83 105.03L293.44 110.44ZM247.7 109.35C247.57 109.16 246.21 109.29 246.45 107.97C246.73 106.44 248.68 107.27 248.95 106.16C249.14 105.39 247.3 105.91 246.85 106.12C244.77 107.09 244.69 109.48 246.73 110.6C247.7 111.14 247.98 109.77 247.7 109.35ZM280.38 108.02C279.98 107.62 274.02 109.22 273.47 110.26C275.59 109.8 278.05 109.75 280 110.82L280.38 108.02ZM279.61 111.96C279.36 111.55 275.92 111.18 275.28 111.21C274.84 111.23 271.99 111.74 271.66 111.87C271.33 112 270.16 113.85 271.26 113.54C271.58 113.45 271.89 112.99 272.23 112.83C273.53 112.22 275.5 112.17 276.93 112.31C277.55 112.37 278.95 112.97 279.33 112.85C279.65 112.75 279.75 112.18 279.61 111.96ZM218.99 116.79C219.3 116.34 216.72 114.92 216.29 114.74C216.07 114.65 215.31 114.3 215.16 114.55L215.07 118.48C215.47 118.89 218.42 117.09 218.99 116.8V116.79ZM226.83 117.17C226.6 117.48 228.83 119.51 229.19 119.75C229.79 120.14 231.02 120.68 231.72 120.77C231.96 120.8 231.98 121 232.23 120.62C230.71 118.74 231.63 117.58 232.61 115.95C232.75 115.71 232.84 115.51 232.52 115.49C232.36 115.49 229.87 116.07 229.48 116.18C228.57 116.42 227.67 116.75 226.83 117.17ZM238.34 116.85C237.43 115.78 235.97 115.78 234.76 116.23C230.66 117.75 234.17 120.94 237.33 120.3C238.86 119.99 239.24 117.93 238.34 116.86V116.85ZM239.14 121.27C239.23 121.35 240.58 121.06 240.82 121C241.36 120.86 244.24 119.77 244.1 119.21C243.86 118.26 241.22 116.83 240.26 116.61C240.49 118.35 239.84 119.75 239.14 121.27ZM286.47 118.17C285.58 117.51 284.76 117.21 283.75 116.79C284.03 117.63 284.51 118.24 284.63 119.17C284.73 119.93 284.66 120.69 284.68 121.45C286 121.39 286.98 120.37 287.85 119.49C287.85 119.39 286.66 118.31 286.47 118.17ZM282.38 117.78C281.94 117.3 281.17 117.31 280.57 117.35C280.1 118.67 282.05 119.06 281.88 120.23C281.74 121.16 280.56 121.33 279.81 121.35L279.45 122.57L282.97 121.99C283.37 120.9 283.14 118.62 282.37 117.78H282.38ZM218.19 126.72C217.05 126.97 216.52 128.82 216.86 129.84C217.55 131.92 220.28 132.27 221.31 130.39C222.64 127.97 220.74 126.15 218.2 126.72H218.19ZM221.42 132.47C221.07 133.02 223 133.19 223.38 133.21C226.15 133.36 230.31 132.36 232.43 130.51C232.45 129.89 227.65 127.76 226.87 127.49C225.38 126.97 223.96 126.5 222.36 126.68C223.03 128.56 223.09 130.71 221.79 132.33C221.65 132.5 221.44 132.46 221.43 132.47H221.42ZM216 127.43C214.02 127.84 212.79 128.55 214.98 130.04C215.54 130.17 215.54 128.68 215.64 128.28C215.74 127.92 216.03 127.78 216 127.43ZM246.92 128.21C246.24 128.42 245.56 130.43 245.5 131.09C245.28 133.48 248.33 134.1 249.31 131.91C250.13 130.08 249.21 127.5 246.92 128.21ZM290.46 134.7C290.79 134.99 293.69 134.23 294.18 133.84C294.25 133.61 293.13 131.07 292.91 130.65C292.73 130.29 292.1 129.02 291.92 128.84C291.66 128.57 290.92 128.24 291 128.82C291.79 130.36 291.84 131.7 291.2 133.31C290.99 133.83 290.52 134.16 290.45 134.7H290.46ZM244.55 128.73L241.56 130.13L243.89 132.46C243.85 131.04 244.23 130.02 244.54 128.73H244.55ZM283.74 129.11C283.55 128.94 279.75 130.98 279.54 131.34C279.45 131.5 279.38 131.71 279.48 131.88C279.59 132.06 283.02 134.13 283.18 133.96C282.89 132.85 282.41 132.35 282.63 131.08C282.77 130.31 283.53 129.81 283.74 129.11ZM289.66 133.15C290.22 132.64 290.18 131.47 290 130.78C289.5 128.89 285.93 128.56 284.73 129.91C284.67 129.97 283.98 131.23 283.96 131.3C283.54 132.96 286.08 134.2 287.5 134.1C288.1 134.06 289.21 133.56 289.65 133.15H289.66ZM205.18 136.94L203.12 137.44C203.07 137.99 202.83 138.58 202.78 139.11C202.72 139.8 202.89 142.6 203.13 143.15C203.3 143.53 204.09 143.47 204.43 143.48C203.82 141.62 203.11 140.03 204.28 138.19C204.43 137.95 205.39 137.14 205.18 136.95V136.94ZM216.07 140.98C214.79 139.33 212.95 138.14 210.96 137.5C211.76 139.53 211.49 141.29 210.77 143.28C212.75 143.03 214.89 142.89 216.55 141.69C216.71 141.16 216.21 141.17 216.06 140.97L216.07 140.98ZM207 137.74C203.81 138.47 204.52 143.64 208.21 143.06C211.14 142.6 211.06 136.81 207 137.74ZM237.28 144.78C236.1 142.78 235.78 140.22 237.65 138.53C236.17 137.74 234.2 138.25 232.61 138.72C231.21 139.13 229.72 139.71 228.71 140.79L228.81 141.26C231.31 143.21 234.01 144.7 237.28 144.79V144.78ZM238.53 139.41C237.62 139.62 236.81 140.92 236.98 141.8C237.7 145.61 243.47 144.3 241.64 140.51C241.09 139.36 239.7 139.14 238.53 139.41ZM272.36 140.12C271.08 139.92 268.02 141.65 268.09 143.02C268.1 143.22 269.62 146.06 269.84 146.29C270.46 146.95 271.72 147.26 272.55 147.12C270.87 145.81 269.81 143.51 271.09 141.55C271.49 140.94 272.19 140.78 272.36 140.12ZM242.32 144.78C243.66 144.69 245.86 144.21 245.68 142.45C245.62 141.84 243.45 140.47 243.25 140.67C243.24 141.31 243.29 141.94 243.2 142.58C243.07 143.47 242.62 143.99 242.32 144.77V144.78ZM273.99 140.72C272.88 140.95 271.83 142.43 271.87 143.54C271.98 146.87 278.01 146.94 278.35 144.51C278.69 142.01 276.42 140.22 274 140.72H273.99ZM283.72 143.83C283.98 143.37 283.03 142.8 282.68 142.58C282.33 142.36 279.57 141.12 279.45 141.24C279.97 142.77 280.04 144.55 279.45 146.09C281.2 145.97 282.29 144.6 283.72 143.83ZM294.75 143.29C294.64 143.18 292.81 143.81 292.51 143.94C292.31 144.03 291.48 144.41 291.58 144.68C292.25 145.41 292.86 146.11 293.9 146.26L294.75 143.29ZM220.3 149.26C218.5 149.2 216.15 149.42 214.57 150.34C214.42 150.43 214.24 150.28 214.35 150.63L215.73 152.24L218.62 153.92C218.28 151.73 218.69 150.71 220.3 149.26ZM221.37 150.05C218.7 150.53 219.77 154.63 221.56 155.18C224.42 156.06 225.75 153.63 224.64 151.17C224.05 149.86 222.63 149.82 221.37 150.04V150.05ZM224.87 156.54H228.04C228.72 156.54 231.43 155.71 232.06 155.34C232.47 155.1 232.75 155.03 232.58 154.44C232.43 153.92 229.39 151.9 228.75 151.55C227.83 151.04 226.87 150.75 225.9 150.39C226.23 152.49 226.41 154.64 224.68 156.18L224.87 156.55V156.54ZM289.72 158.03C289.85 158.16 292.48 157.3 292.85 157.15C293.47 156.9 296.22 155.69 296.05 154.97C295.9 154.31 289.86 152.18 288.88 152.06C288.52 152.36 288.64 152.26 288.78 152.52C288.97 152.89 289.33 153.24 289.51 153.66C290.12 155.07 289.94 156.55 289.72 158.02V158.03ZM243.99 156.54C243.97 156.16 243.98 155.79 244.08 155.41C244.25 154.76 245.04 153.36 245.09 153.06C245.22 152.19 242.68 152.97 242.21 153.17C242.01 153.26 241.03 153.92 241.02 154.02C241.18 154.58 243.67 156.88 243.99 156.54ZM282.44 157.1C281.78 155.47 282.27 154.4 282.63 152.81L279.09 155.15C278.97 155.65 282.24 157.32 282.45 157.1H282.44ZM283.98 153.41C283.86 153.56 283.77 154.15 283.75 154.39C283.52 156.87 285.15 158.1 287.57 157.65C289.08 157.37 289.01 153.3 286.79 152.85C286.1 152.71 284.44 152.87 283.99 153.41H283.98ZM247.73 158.4L245.77 155.04C244.8 156.34 246.44 158.2 247.73 158.4ZM204.62 156.54C202.34 156.63 200.76 156.94 198.78 158.07C198.58 158.18 198.45 158.19 198.48 158.47C198.51 158.83 200.73 160.86 201.17 161.2C201.4 161.38 203.2 162.63 203.31 162.51C203.03 160.81 203.16 159.35 203.89 157.77C204.12 157.29 204.55 157.03 204.61 156.54H204.62ZM207.18 157.51C203.16 157.86 203.52 163.58 207.65 162.84C210.62 162.3 209.49 157.31 207.18 157.51ZM210.22 157.66C210.93 159.29 210.95 160.27 210.5 161.95C210.36 162.47 209.76 162.88 210.31 163.25C211.03 162.7 211.9 162.66 212.71 162.29C213.37 161.99 215.09 161.29 214.81 160.44C214.66 159.98 211.74 158.25 211.12 157.95C210.83 157.81 210.55 157.62 210.21 157.65L210.22 157.66ZM234.48 162.14C234.15 161.85 230.35 162.8 229.9 163.45C229.42 164.23 231.65 165.68 232.18 166.03C232.45 166.21 233.5 167.03 233.73 166.81C233.66 166.11 233.1 165.41 233.17 164.68C233.23 164.1 234.58 162.24 234.47 162.14H234.48ZM239.08 166.73C240.23 165.57 240.11 163.57 238.4 162.97C234.92 161.75 233.07 166.18 236.35 167.26C237.45 167.62 238.23 167.58 239.08 166.73ZM240.64 162.7C241.48 165.06 241.34 166.37 239.8 168.3C239.64 168.5 239.38 168.53 239.7 168.77C240.27 169.09 241.76 168.67 242.41 168.49C243.03 168.32 246.98 166.68 246.97 166.34C245.32 164.49 242.88 163.61 240.63 162.7H240.64ZM301.66 164L301.48 162.77C298.24 161.71 297.8 167.5 301.29 166.71L301.65 165.68C299.19 166.46 299.22 163.59 301.65 164H301.66ZM297.55 163.44C296.97 163.59 293.89 164.79 294.01 165.38C294.43 165.95 297.47 167.21 297.92 166.8C297.4 165.61 297.3 164.72 297.55 163.44ZM277.96 169.22C281.59 168.61 279.28 164.3 276.74 163.82C276.22 164.16 276.66 164.63 276.65 165.12C278.04 164.43 279.18 166.56 278.42 167.54C277.95 168.15 277.4 167.83 277.96 169.21V169.22ZM284 166.68C284.18 166.47 284.59 166.37 284.63 165.95C284.58 165.35 280.85 163.79 280.57 164C281.37 165.35 281.62 166.75 281.32 168.29C282.57 168.23 283.27 167.54 284 166.68ZM195.61 170.02C196.29 170.61 195.34 171.45 195.64 172.13C196.31 173.6 196.75 171.09 196.59 170.26C196.51 169.87 195.3 168.73 194.99 168.69C194.44 168.61 194.6 169.28 194.83 169.6C195.13 170 195.44 169.89 195.61 170.03V170.02ZM197.9 172.58C198.45 172.44 200.96 172.26 201.07 171.74C200.64 170.96 199.97 170.18 199.3 169.59C199.17 169.47 197.58 168.1 197.74 168.91C198.02 170.31 198.15 171.09 197.9 172.58ZM215.44 175.76C215.56 174.77 215.11 174 215.27 172.88C215.41 171.89 216.39 170.65 216.72 169.66L216.46 169.22L211.56 171.58C210.62 172.29 211.56 173.08 212.14 173.63C213.09 174.54 214.22 175.24 215.43 175.75L215.44 175.76ZM227.72 173.1L227.86 172.58C226.61 171.15 224.77 170.43 223.1 169.6C223.3 171.71 223.63 173.45 222.17 175.2C224.24 175.1 225.79 173.58 227.72 173.11V173.1ZM218.75 169.82C217.94 170 216.95 171.67 216.93 172.49C216.86 174.61 219.32 174.86 220.8 174.11C222.64 173.18 220.74 169.37 218.75 169.82ZM289.11 170.76C287.47 171.04 286.46 172.74 287.16 174.3C287.95 176.06 291.56 175.95 292.19 174.02C292.95 171.71 291.37 170.37 289.11 170.76ZM291.77 176.69C293.42 176.4 295.29 176.02 296.8 175.29C297.24 175.08 298.6 174.35 298.46 173.83C298.03 173.06 293.94 171.15 293.44 171.65C293.47 172.84 293.49 174.54 292.78 175.56C292.46 176.03 291.79 176.1 291.76 176.69H291.77ZM248.66 173.15C248.26 173.08 245.68 173.15 245.68 173.62C246.02 174.01 246.59 173.91 247.03 174.13C247.52 174.37 247.72 175.02 248.28 175.02L248.65 173.16L248.66 173.15ZM286.35 176.5L285.23 173.52C284.28 173.87 283.64 174.51 283.64 175.58L286.35 176.5ZM241.45 175.45C241.64 175.22 242.54 174.94 242.23 174.45C241.54 175.09 236.78 176.67 236.92 177.5C237.68 178.38 238.69 179.37 239.89 179.49C240.07 178.06 240.52 176.56 241.45 175.45ZM242 176.56C241.71 176.97 240.94 179.66 241.84 179.68C243.08 179.7 242.8 176.93 244.36 177.15L245.2 177.95C245.99 177.47 247.36 176.84 246.03 176.05C245.08 175.49 242.68 175.59 242 176.56Z" fill="black"/>
<path d="M255.94 195.73L252.63 201.84C252.18 203.36 251.64 203.7 252.83 204.99C254.98 207.33 257.91 209.35 259.51 212.21C260.18 213.4 262 218.17 260.77 219.13C259.11 220.43 259.4 217.63 259.2 216.8C258.13 212.18 255.47 210.02 252.31 206.8C251.51 205.98 250.13 205.55 250.15 204.05C250.18 202.06 252.9 198.6 253.72 196.6C253.95 196.03 253.94 195.29 254.24 194.7C254.24 194.53 252.87 194.48 252.61 194.36C252.55 194.33 252.53 194.12 252.42 194.04C252.05 193.78 251.65 194.06 251.81 193.3C252.02 193.08 255.37 193.85 255.99 193.84C258.69 193.77 262.02 192.87 264.19 191.21C265.37 190.32 264.87 190.08 265.31 188.97C265.46 188.57 265.98 188.14 265.99 187.8C265.99 187.52 264.04 183.23 263.73 182.6C262.51 180.09 261.45 177.96 260.3 175.39C258.36 171.04 256.41 166.71 254.09 162.55C254.02 161.54 254.96 161.23 255.63 161.96C256.34 162.72 257.94 165.99 258.51 167.1C260.27 170.54 261.51 174.17 263.06 177.66C264.85 181.67 267.1 185.51 268.93 189.52C272.22 196.74 273.83 203.89 276.44 211.31C276.79 212.3 278.21 214.9 278.28 215.63C278.33 216.16 277.56 216.43 277.08 216.08C276.83 215.89 275.34 212.98 275.1 212.46C273.77 209.52 272.32 205.16 271.35 202.03C270.69 199.91 270.45 197.58 269.63 195.54C269.09 194.2 268.1 192.82 267.6 191.42C266.49 190.56 263.95 193.05 262.89 193.65C262.38 193.94 261.74 194.01 261.28 194.47L257.6 195.27C259.48 198.9 261.65 202.4 263.36 206.12C264.72 209.09 265.59 211.95 267.34 214.83C267.68 215.39 269.16 216.61 267.92 216.98C266.68 217.35 265.79 215.5 265.29 214.65C263.54 211.65 262.34 208.32 261 205.13L255.93 195.74L255.94 195.73Z" fill="black"/>
<path d="M269.68 132.58C267.56 134.91 261.61 133.89 260.6 130.69C261.28 130.3 261.89 130.36 262.63 129.92C263.37 129.48 264.25 128.43 265.08 128.08C265.82 127.77 268.73 127.81 269.17 128.47C269.35 128.73 270.16 131.48 270.11 131.8C270.07 132.05 269.85 132.4 269.67 132.59L269.68 132.58Z" fill="black"/>
<path d="M263.59 115.11C263.37 115.27 259.24 113.04 258.37 113.44C257.91 117.15 254.46 117.28 253.3 113.83L250.83 114.57C250.17 113.65 250.75 113.26 251.52 112.85C252.9 112.12 255.81 111.27 257.34 111.39C258.11 111.45 262.14 112.53 262.73 112.91C263.21 113.22 264.13 114.73 263.59 115.12V115.11Z" fill="black"/>
<path d="M254.59 105.65C257.69 105.33 262.56 106.19 265.07 108.13C265.89 108.76 265.94 109.76 264.84 109.87C261.22 107.33 256.17 106.6 251.92 107.81C250.83 106.19 253.42 105.78 254.59 105.66V105.65Z" fill="black"/>
<path d="M262.44 111.72C261.97 112.02 258.97 110.72 258.08 110.63C257.16 110.53 254.89 110.52 253.99 110.65C253.18 110.77 252.74 111.35 252.07 111.53C251.23 111.76 251.71 110.99 252.13 110.66C254.31 108.96 257.66 108.87 260.26 109.57C261.21 109.82 263.16 110.45 262.43 111.73L262.44 111.72Z" fill="black"/>
<path d="M264.56 123.55C264.85 123.35 267.17 122.99 267.51 123.23L267.69 123.79C267.64 123.93 265.5 124.96 265.21 124.96C264.29 124.94 264.05 123.92 264.56 123.56V123.55Z" fill="black"/>
<path d="M274.47 145.1C274.26 144.94 273.88 144.03 273.87 143.74C273.75 141.4 277.65 141.86 277.22 144.12C277.03 145.11 275.18 145.62 274.48 145.09L274.47 145.1Z" fill="black"/>
<path d="M285.84 131.38C285.84 131.38 286.63 130.82 286.67 130.81C287.07 130.72 288.29 130.88 288.5 131.35C289.12 132.73 286.52 133.71 285.88 132.65C285.74 132.42 285.71 131.6 285.83 131.38H285.84Z" fill="black"/>
<path d="M221.83 153.88C221.54 153.71 220.99 152.1 221.23 151.87C223.03 151.62 223.85 151.57 223.39 153.75C223.22 153.99 222.05 154.01 221.83 153.88Z" fill="black"/>
<path d="M268.69 94.83C269.73 94.1 271.08 95.51 269.94 96.73C269.01 97.72 267.81 96.8 267.9 95.64C268.18 95.49 268.52 94.95 268.69 94.83Z" fill="black"/>
<path d="M290.62 172.06C291.56 173.36 290.11 174.47 288.77 174C288.06 172.53 289.23 171.77 290.62 172.06Z" fill="black"/>
<path d="M254.47 85.98C254.11 84.66 256.06 83.19 256.46 85.02C256.8 86.58 255.56 86.33 254.47 85.98Z" fill="black"/>
<path d="M236.6 164.62C236.68 164.49 237.12 164.23 237.23 163.99C238.27 163.96 239.01 164.77 238.38 165.75C237.62 166.93 235.84 165.87 236.6 164.62Z" fill="black"/>
<path d="M239.28 140.7C240.87 140.41 241.34 143.15 239.28 142.69C238.15 142.44 238.08 140.92 239.28 140.7Z" fill="black"/>
<path d="M237.05 119.36C236.32 120.1 233.84 119.38 235.09 117.68C235.69 116.86 236.25 116.57 237 117.36C237.51 117.9 237.57 118.85 237.05 119.37V119.36Z" fill="black"/>
<path d="M218.94 128.01C219.99 127.73 221.14 129.23 220.02 130.23C218.27 131.79 217.33 128.45 218.94 128.01Z" fill="black"/>
<path d="M285.94 154.33C287.57 154.05 287.91 156.05 287.1 156.44C285.39 157.27 283.35 154.77 285.94 154.33Z" fill="black"/>
<path d="M248.26 129.87C248.53 130.18 248.21 131.58 247.59 131.69L246.84 131.49C246.47 130.84 246.4 129.83 247.3 129.71C247.46 129.69 248.22 129.83 248.26 129.88V129.87Z" fill="black"/>
<path d="M222.68 103.57C223.71 103.32 224.54 105.08 223.65 105.86C222.02 107.28 220.63 104.07 222.68 103.57Z" fill="black"/>
<path d="M241.15 93.51C242.62 95.05 238.75 96.79 239.16 94.13C239.31 93.17 240.48 92.8 241.15 93.51Z" fill="black"/>
<path d="M219.31 170.93C219.55 170.86 219.7 170.91 219.93 170.98C222.19 171.66 218.75 175.85 218.01 173.27C217.82 172.61 218.75 171.08 219.31 170.93Z" fill="black"/>
</g>
<defs>
<clipPath id="clip0_801_108">
<rect width="500.34" height="359.35" fill="white"/>
</clipPath>
</defs>
</svg>
