<svg width="493" height="234" viewBox="0 0 493 234" fill="none" xmlns="http://www.w3.org/2000/svg">
<path d="M84.9275 87.7487C64.3453 87.7487 49.3259 68.4462 49.3259 41.4893C49.3259 18.526 57.8925 0 80.366 0C91.3803 0 97.9443 0.887473 105.398 1.66401V11.4262C98.6118 7.87631 88.8214 1.77494 80.6998 1.77494C67.7942 1.77494 60.6739 17.0838 60.6739 41.4893C60.6739 69.6665 72.6894 86.0847 85.595 86.0847C92.2703 86.0847 101.171 78.7631 107.067 76.3225L107.401 86.0847C101.949 86.7503 93.7166 87.7487 84.9275 87.7487Z" fill="black"/>
<path d="M142.913 87.7487C128.45 87.7487 113.208 78.985 113.208 55.356C113.208 35.7207 127.115 24.8492 143.024 24.8492C158.6 24.8492 164.163 31.6162 164.163 39.7143C164.163 56.6872 133.123 61.1246 133.123 73.5492H131.342C131.342 61.1246 152.815 60.0153 152.815 41.6002C152.815 36.2754 149.588 26.6241 140.577 26.6241C130.341 26.6241 124.667 37.2738 124.667 55.356C124.667 78.5412 134.791 86.0847 144.916 86.0847C151.368 86.0847 157.821 83.0895 161.826 79.0959L162.939 81.3146C158.044 85.3082 150.59 87.7487 142.913 87.7487Z" fill="black"/>
<path d="M178.613 107.939C174.496 107.939 171.047 105.387 171.047 100.395C171.047 91.6314 188.292 90.0784 188.292 79.4287C188.292 78.0975 188.069 76.6553 187.402 74.9913L176.721 46.5923C173.384 37.6066 168.377 28.0663 166.82 26.0695V25.8476H182.729V26.0695C181.172 28.0663 184.843 37.6066 188.181 46.7032L194.411 63.8979C195.524 67.0041 195.969 69.6665 195.969 72.1071C195.969 88.1925 174.385 90.8549 174.385 97.6219C174.385 98.7312 175.72 99.3968 177.834 99.3968C183.397 99.3968 194.745 94.2938 201.309 77.8756L207.428 62.5667C212.546 49.8093 212.212 35.6098 212.212 25.8476H223.337L203.2 77.8756C193.298 103.501 184.954 107.939 178.613 107.939Z" fill="black"/>
<path d="M230.7 86.0847V85.8629C232.258 83.8661 232.814 73.5492 232.814 63.8979V23.9617C232.814 14.3105 232.258 3.99362 230.7 1.99681V1.77494H244.162V63.8979C244.162 73.5492 244.718 83.8661 246.276 85.8629V86.0847H230.7Z" fill="black"/>
<path d="M282.348 87.8597C265.66 87.8597 255.536 76.5444 255.536 56.2435C255.536 35.9426 265.66 24.7383 282.348 24.7383C299.037 24.7383 308.938 35.9426 308.938 56.2435C308.938 76.5444 299.037 87.8597 282.348 87.8597ZM282.237 86.0847C292.695 86.0847 297.59 73.5492 297.59 56.2435C297.59 38.9378 292.695 26.5132 282.237 26.5132C271.668 26.5132 266.884 38.8269 266.884 56.2435C266.884 73.5492 271.668 86.0847 282.237 86.0847Z" fill="black"/>
<path d="M316.937 86.0847V85.8629C318.495 83.8661 319.051 73.5492 319.051 63.8979V48.0344C319.051 38.3831 318.495 28.0663 316.937 26.0695V25.8476H330.399V43.4861H330.622C334.071 30.9506 343.972 24.6273 352.984 24.6273C362.107 24.6273 370.451 31.1724 370.451 44.3736V63.8979C370.451 73.5492 371.007 83.8661 372.565 85.8629V86.0847H356.989V85.8629C358.547 83.8661 359.103 73.5492 358.992 63.8979V44.3736C358.992 31.949 353.985 29.6194 348.423 29.6194C340.412 29.6194 330.511 37.1629 330.399 54.9123V63.8979C330.399 73.5492 330.956 83.8661 332.513 85.8629V86.0847H316.937Z" fill="black"/>
<path d="M28.0362 213.921C16.9107 213.921 9.1229 213.033 1.2238 212.146V202.384C8.45537 205.934 19.1358 211.813 30.9289 211.813C40.3855 211.813 45.0582 206.045 45.0582 197.392C45.0582 176.203 0 165.11 0 144.809C0 132.052 11.4593 126.061 24.8098 126.061C34.3778 126.061 44.502 127.06 50.0647 127.836V137.044C43.6119 133.716 31.4851 127.725 22.4735 127.725C15.6869 127.725 8.78914 131.719 8.78914 138.93C8.78914 158.787 53.1798 167.772 53.4023 191.18C53.6249 205.934 41.8318 213.921 28.0362 213.921Z" fill="black"/>
<path d="M83.7584 213.81C73.523 213.81 63.6213 206.377 63.6213 192.4V174.096C63.6213 164.444 63.065 154.128 61.5074 152.131V151.909H74.9693V194.175C74.9693 206.599 80.1983 211.813 86.3173 211.813C94.9952 211.813 105.342 201.607 105.342 186.742V174.096C105.342 164.444 104.786 154.128 103.228 152.131V151.909H116.69V189.959C116.69 199.61 117.246 209.927 118.804 211.924V212.146H105.342V196.393H105.119C102.004 206.932 92.9926 213.81 83.7584 213.81Z" fill="black"/>
<path d="M142.113 151.909V175.316C144.783 161.227 152.238 150.578 165.811 150.578V159.452C150.457 159.452 143.115 165.776 142.113 184.302V189.959C142.113 199.61 142.67 209.927 144.227 211.924V212.146H128.652V211.924C130.209 209.927 130.765 199.61 130.765 189.959V174.096C130.765 164.444 130.209 154.128 128.652 152.131V151.909H142.113Z" fill="black"/>
<path d="M170.939 212.146V211.924C172.496 209.927 173.053 199.61 173.053 189.959V153.573H168.936V151.909H173.053V143.811C173.053 127.836 184.623 126.283 198.419 127.836V137.598C192.411 131.941 188.183 129.722 185.291 129.722C181.731 129.722 180.173 132.939 180.173 137.377C180.173 141.925 181.731 147.472 184.289 151.909H196.972V153.573H184.401V189.959C184.401 199.61 184.957 209.927 186.514 211.924V212.146H170.939Z" fill="black"/>
<path d="M271.849 212.146H245.259V211.924C246.816 209.927 247.373 199.61 247.373 189.959V150.023C247.373 140.372 246.816 130.055 245.259 128.058V127.836H273.073C294.433 127.836 303.89 143.256 303.89 167.994C303.89 192.289 293.766 212.146 271.849 212.146ZM258.721 129.611V210.482H269.735C286.312 210.482 292.542 194.064 292.542 167.994C292.542 145.586 286.757 129.611 269.735 129.611H258.721Z" fill="black"/>
<path d="M318.967 136.156C314.405 136.156 312.18 133.494 312.18 130.721C312.18 128.169 314.405 125.396 318.967 125.396C323.417 125.396 325.642 128.169 325.642 130.721C325.642 133.494 323.417 136.156 318.967 136.156ZM311.179 212.146V211.924C312.737 209.927 313.293 199.61 313.293 189.959V174.096C313.293 164.444 312.737 154.128 311.179 152.131V151.909H324.641V189.959C324.641 199.61 325.197 209.927 326.755 211.924V212.146H311.179Z" fill="black"/>
<path d="M353.097 213.921C343.863 213.921 335.63 208.485 335.519 197.946C335.519 183.081 353.764 163.89 353.764 157.012C357.213 157.012 359.995 159.009 359.995 163.89C359.995 170.324 343.195 189.294 343.195 204.381C343.195 209.484 347.868 212.368 353.431 212.368C362.331 212.368 373.79 205.934 373.79 195.173V175.871C373.79 163.224 371.454 152.242 362.665 152.242C358.882 152.242 353.876 154.349 347.312 159.231L345.309 153.684C351.762 151.687 357.213 150.8 361.775 150.8C379.353 150.8 385.138 163.779 385.138 179.421V189.959C385.138 199.61 385.695 209.927 387.252 211.924V212.146H374.013V202.495H373.679C369.118 210.149 360.774 213.921 353.097 213.921Z" fill="black"/>
<path d="M409.495 151.909V175.316C412.165 161.227 419.619 150.578 433.192 150.578V159.452C417.839 159.452 410.496 165.776 409.495 184.302V189.959C409.495 199.61 410.051 209.927 411.608 211.924V212.146H396.033V211.924C397.59 209.927 398.147 199.61 398.147 189.959V174.096C398.147 164.444 397.59 154.128 396.033 152.131V151.909H409.495Z" fill="black"/>
<path d="M448.276 234C444.159 234 440.71 231.449 440.71 226.456C440.71 217.693 457.955 216.14 457.955 205.49C457.955 204.159 457.732 202.717 457.065 201.053L446.384 172.654C443.047 163.668 438.04 154.128 436.483 152.131V151.909H452.392V152.131C450.834 154.128 454.506 163.668 457.843 172.764L464.074 189.959C465.186 193.065 465.631 195.728 465.631 198.168C465.631 214.254 444.048 216.916 444.048 223.683C444.048 224.792 445.383 225.458 447.497 225.458C453.059 225.458 464.407 220.355 470.972 203.937L477.091 188.628C482.208 175.871 481.875 161.671 481.875 151.909H493L472.863 203.937C462.961 229.563 454.617 234 448.276 234Z" fill="black"/>
</svg>
